<svg width="25" height="25" viewBox="0 0 25 25" fill="none" xmlns="http://www.w3.org/2000/svg">
<path d="M0 12.8718C0 6.17355 5.59644 0.74353 12.5 0.74353C19.4036 0.74353 25 6.17355 25 12.8718C25 19.5701 19.4036 25.0001 12.5 25.0001C5.59644 25.0001 0 19.5701 0 12.8718Z" fill="white"/>
<path d="M12.501 9.64844C13.5181 9.64844 14.2042 10.0747 14.5954 10.4309L16.1241 8.98273C15.1853 8.13599 13.9635 7.61627 12.501 7.61627C10.3825 7.61627 8.55285 8.79586 7.66211 10.5127L9.4135 11.8324C9.85285 10.5652 11.0686 9.64844 12.501 9.64844Z" fill="#EA4335"/>
<path d="M17.7 12.9887C17.7 12.5565 17.6639 12.2412 17.5856 11.9142H12.5V13.8646H15.4852C15.425 14.3493 15.1 15.0792 14.3778 15.5697L16.087 16.8544C17.1102 15.9376 17.7 14.5887 17.7 12.9887Z" fill="#4285F4"/>
<path d="M9.41917 13.9124C9.30482 13.5853 9.23862 13.235 9.23862 12.8729C9.23862 12.5109 9.30482 12.1605 9.41315 11.8335L7.66176 10.5137C7.29463 11.2262 7.08398 12.0262 7.08398 12.8729C7.08398 13.7196 7.29463 14.5197 7.66176 15.2321L9.41917 13.9124Z" fill="#FBBC05"/>
<path d="M12.5008 18.1275C13.9633 18.1275 15.1911 17.6603 16.0879 16.8544L14.3786 15.5697C13.9212 15.8792 13.3073 16.0953 12.5008 16.0953C11.0684 16.0953 9.85269 15.1785 9.41936 13.9113L7.66797 15.2311C8.55871 16.9479 10.3823 18.1275 12.5008 18.1275Z" fill="#34A853"/>
</svg>
