<svg width="25" height="26" viewBox="0 0 25 26" fill="none" xmlns="http://www.w3.org/2000/svg">
<path d="M0 12.902C0 6.20384 5.59644 0.773926 12.5 0.773926C19.4036 0.773926 25 6.20384 25 12.902C25 19.6001 19.4036 25.03 12.5 25.03C5.59644 25.03 0 19.6001 0 12.902Z" fill="#55ACEE"/>
<path d="M12.1256 10.6317L12.1519 11.0514L11.7147 11C10.1234 10.803 8.73315 10.135 7.55278 9.01304L6.97571 8.45635L6.82707 8.86744C6.5123 9.78384 6.7134 10.7516 7.36917 11.4025C7.71891 11.7622 7.64022 11.8136 7.03691 11.5995C6.82707 11.531 6.64346 11.4796 6.62597 11.5053C6.56477 11.5652 6.77461 12.3446 6.94074 12.6529C7.16807 13.0811 7.63147 13.5008 8.13859 13.7492L8.56703 13.9462L8.0599 13.9547C7.57027 13.9547 7.55278 13.9633 7.60524 14.1431C7.78011 14.6998 8.47085 15.2908 9.24027 15.5477L9.78237 15.7276L9.31022 16.0016C8.61074 16.3956 7.78885 16.6183 6.96697 16.6354C6.57351 16.644 6.25 16.6782 6.25 16.7039C6.25 16.7896 7.31671 17.2692 7.93749 17.4576C9.79986 18.0143 12.012 17.7745 13.6732 16.8238C14.8536 16.1472 16.034 14.8026 16.5848 13.5008C16.8821 12.8071 17.1794 11.5395 17.1794 10.9315C17.1794 10.5375 17.2056 10.4861 17.6952 10.0151C17.9838 9.74102 18.2548 9.44126 18.3073 9.35562C18.3947 9.19289 18.386 9.19289 17.94 9.33849C17.1969 9.59542 17.0919 9.56116 17.4592 9.17576C17.7302 8.9017 18.0537 8.40496 18.0537 8.25937C18.0537 8.23368 17.9226 8.2765 17.7739 8.35358C17.6165 8.43922 17.2668 8.56769 17.0045 8.64477L16.5323 8.79036L16.1039 8.50774C15.8678 8.35358 15.5356 8.18229 15.3607 8.1309C14.9148 8.011 14.2328 8.02813 13.8306 8.16516C12.7377 8.55056 12.0469 9.54404 12.1256 10.6317Z" fill="white"/>
</svg>
